<svg width="185" height="185" viewBox="0 0 185 185" fill="none" xmlns="http://www.w3.org/2000/svg">
<path d="M92.5 180.5C141.101 180.5 180.5 141.101 180.5 92.5C180.5 43.8989 141.101 4.5 92.5 4.5C43.8989 4.5 4.5 43.8989 4.5 92.5C4.5 141.101 43.8989 180.5 92.5 180.5Z" fill="#F5F5F8" stroke="#50BFA5" stroke-width="9"/>
<mask id="mask0_168_498" style="mask-type:alpha" maskUnits="userSpaceOnUse" x="9" y="9" width="167" height="167">
<path fill-rule="evenodd" clip-rule="evenodd" d="M92.5 176C138.616 176 176 138.616 176 92.5C176 46.3842 138.616 9 92.5 9C46.3842 9 9 46.3842 9 92.5C9 138.616 46.3842 176 92.5 176Z" fill="white"/>
</mask>
<g mask="url(#mask0_168_498)">
<path fill-rule="evenodd" clip-rule="evenodd" d="M153.253 156.626C148.33 149.505 141.072 144.329 132.736 141.993L113.375 136.57V122.653C121.56 116.505 126.935 106.83 127.265 95.8852C128.409 96.3894 129.672 96.6752 131.003 96.6752C136.127 96.6752 140.281 92.5215 140.281 87.3974C140.281 82.2733 136.127 78.1196 131.003 78.1196C129.682 78.1196 128.429 78.3994 127.292 78.8967V76.2641C127.292 57.0489 111.715 41.4724 92.5003 41.4724H92.4998C73.2851 41.4724 57.7086 57.0489 57.7086 76.2641V78.8967C56.5712 78.3994 55.3178 78.1196 53.9975 78.1196C48.8734 78.1196 44.7197 82.2733 44.7197 87.3974C44.7197 92.5215 48.8734 96.6752 53.9975 96.6752C55.3284 96.6752 56.5911 96.3899 57.7355 95.8852C58.0654 106.83 63.4404 116.505 71.6248 122.653V136.57L52.264 141.993C43.9279 144.329 36.6703 149.505 31.7476 156.626L18.2781 176.112V189.917H166.723V176.112L153.253 156.626Z" fill="#FFCF83"/>
<path fill-rule="evenodd" clip-rule="evenodd" d="M92.4998 129.611C88.2098 129.611 84.1034 128.83 80.3088 127.41C85.7057 130.858 92.1148 132.858 98.9943 132.858C104.125 132.858 108.991 131.739 113.375 129.746V122.653C107.56 127.021 100.333 129.611 92.4998 129.611Z" fill="#F7A74F"/>
<path d="M58.9188 88.7513C59.0371 88.3204 59.1006 87.8662 59.1006 87.3977C59.1006 84.5796 56.816 82.2949 53.9978 82.2949C53.2932 82.2949 52.622 82.4378 52.0115 82.6957" stroke="#00004D" stroke-linecap="round" stroke-linejoin="round"/>
<path d="M126.082 88.7513C125.963 88.3204 125.9 87.8662 125.9 87.3977C125.9 84.5796 128.185 82.2949 131.003 82.2949C131.707 82.2949 132.379 82.4378 132.99 82.6957" stroke="#00004D" stroke-linecap="round" stroke-linejoin="round"/>
<path fill-rule="evenodd" clip-rule="evenodd" d="M101.778 108.276C101.778 113.4 97.6241 117.554 92.4999 117.554C87.3758 117.554 83.2222 113.4 83.2222 108.276H101.778Z" fill="white"/>
<path fill-rule="evenodd" clip-rule="evenodd" d="M111.52 88.7887C111.52 90.8382 109.858 92.4999 107.809 92.4999C105.759 92.4999 104.098 90.8382 104.098 88.7887C104.098 86.7393 105.759 85.0776 107.809 85.0776C109.858 85.0776 111.52 86.7393 111.52 88.7887" fill="#00004D"/>
<path fill-rule="evenodd" clip-rule="evenodd" d="M80.9029 88.7887C80.9029 90.8382 79.2413 92.4999 77.1918 92.4999C75.1424 92.4999 73.4807 90.8382 73.4807 88.7887C73.4807 86.7393 75.1424 85.0776 77.1918 85.0776C79.2413 85.0776 80.9029 86.7393 80.9029 88.7887" fill="#00004D"/>
<path d="M92.4998 85.0776L97.1387 100.85L90.6443 101.778" stroke="#00004D" stroke-linecap="round" stroke-linejoin="round"/>
<path fill-rule="evenodd" clip-rule="evenodd" d="M129.611 78.235V76.2639C129.611 69.1451 127.603 62.4966 124.128 56.8479C120.907 51.6129 116.421 47.2449 111.1 44.1554C105.63 40.9796 99.2798 39.1528 92.5 39.1528C85.7198 39.1528 79.3701 40.9796 73.9004 44.1554C68.5787 47.2449 64.0929 51.6129 60.8721 56.8479C57.3971 62.4966 55.3889 69.1451 55.3889 76.2639V78.235C57.3243 78.5273 59.0625 79.411 60.4119 80.7043C64.6862 76.4142 68.1282 71.2957 70.4699 65.6052C77.0238 69.1488 84.5267 71.1612 92.5 71.1612C100.473 71.1612 107.976 69.1488 114.53 65.6052C116.871 71.2957 120.314 76.4142 124.588 80.7043C125.938 79.411 127.676 78.5273 129.611 78.235" fill="#00004D"/>
<path fill-rule="evenodd" clip-rule="evenodd" d="M166.722 176.111L153.252 156.626C148.33 149.505 141.072 144.328 132.736 141.993L113.375 136.569C113.375 148.098 104.029 157.444 92.5001 157.444V157.444C80.971 157.444 71.6251 148.098 71.6251 136.569L52.2637 141.993C43.9276 144.328 36.6701 149.505 31.7473 156.626L18.2778 176.111V189.917H166.722V176.111Z" fill="#FB344F"/>
</g>
</svg>
