<svg width="26" height="26" viewBox="0 0 26 26" fill="none" xmlns="http://www.w3.org/2000/svg">
<path d="M14.0516 23.237C16.6285 22.9091 18.9839 21.6123 20.639 19.6101C22.2941 17.6079 23.1248 15.0507 22.9621 12.4581C22.7994 9.86548 21.6557 7.43209 19.7633 5.65251C17.8709 3.87293 15.3719 2.88069 12.7742 2.87747C10.1733 2.87553 7.66956 3.86535 5.77309 5.64523C3.87662 7.42511 2.73015 9.86111 2.56728 12.4569C2.40442 15.0527 3.23741 17.6129 4.89653 19.6158C6.55565 21.6188 8.91605 22.9138 11.4968 23.237V15.6517H8.94194V13.0968H11.4968V10.984C11.4968 9.27606 11.6756 8.65652 12.0077 8.03186C12.3349 7.41382 12.8406 6.90861 13.4589 6.58199C13.9469 6.32012 14.5536 6.16299 15.6139 6.09529C16.0342 6.06846 16.5783 6.10168 17.2464 6.19748V8.62458H16.6065C15.4351 8.62458 14.9509 8.67951 14.6622 8.83408C14.49 8.92267 14.3497 9.06292 14.2611 9.23519C14.1078 9.52388 14.0516 9.81003 14.0516 10.9827V13.0968H17.2452L16.6065 15.6517H14.0516V23.237ZM12.7742 25.871C5.71901 25.871 0 20.152 0 13.0968C0 6.04164 5.71901 0.322632 12.7742 0.322632C19.8294 0.322632 25.5484 6.04164 25.5484 13.0968C25.5484 20.152 19.8294 25.871 12.7742 25.871Z" fill="#B75742"/>
</svg>
