<svg width="808" height="584" viewBox="0 0 808 584" fill="none" xmlns="http://www.w3.org/2000/svg">
<g clip-path="url(#clip0_144_341)">
<path d="M806.832 579.521H1.16763C0.857955 579.521 0.560963 579.398 0.34199 579.179C0.123017 578.96 0 578.663 0 578.353C0 578.043 0.123017 577.746 0.34199 577.527C0.560963 577.308 0.857955 577.185 1.16763 577.185H806.832C807.142 577.185 807.439 577.308 807.658 577.527C807.877 577.746 808 578.043 808 578.353C808 578.663 807.877 578.96 807.658 579.179C807.439 579.398 807.142 579.521 806.832 579.521Z" fill="#CCCCCC"/>
<path d="M727.088 375.77H253.031C251.018 375.77 249.087 376.57 247.664 377.994C246.241 379.418 245.441 381.35 245.441 383.364C245.441 385.378 246.241 387.309 247.664 388.733C249.087 390.157 251.018 390.958 253.031 390.958H266.458V572.626C266.458 574.64 267.258 576.572 268.681 577.996C270.105 579.42 272.035 580.22 274.048 580.22C276.061 580.22 277.991 579.42 279.415 577.996C280.838 576.572 281.637 574.64 281.637 572.626L281.753 390.958H697.314V572.626C697.314 574.64 698.113 576.572 699.537 577.996C700.96 579.42 702.89 580.22 704.903 580.22C706.916 580.22 708.847 579.42 710.27 577.996C711.693 576.572 712.493 574.64 712.493 572.626V394.962L714.701 390.958H727.088C729.101 390.958 731.032 390.157 732.455 388.733C733.878 387.309 734.678 385.378 734.678 383.364C734.678 381.35 733.878 379.418 732.455 377.994C731.032 376.57 729.101 375.77 727.088 375.77Z" fill="#CCCCCC"/>
<path d="M515.852 379.744H372.255C369.474 379.741 366.809 378.634 364.842 376.667C362.876 374.7 361.77 372.033 361.767 369.251V290.147C361.77 287.365 362.876 284.698 364.842 282.73C366.809 280.763 369.474 279.657 372.255 279.654H515.852C518.633 279.657 521.298 280.763 523.264 282.73C525.23 284.698 526.336 287.365 526.339 290.147V369.251C526.336 372.033 525.23 374.7 523.264 376.667C521.298 378.634 518.633 379.741 515.852 379.744Z" fill="#3F3D56"/>
<path d="M515.851 287.73H372.256C371.615 287.731 371.001 287.986 370.548 288.439C370.095 288.893 369.84 289.507 369.839 290.148V369.253C369.84 369.894 370.095 370.508 370.548 370.961C371.001 371.414 371.615 371.67 372.256 371.671H515.851C516.492 371.67 517.106 371.414 517.559 370.961C518.012 370.508 518.267 369.894 518.268 369.253V290.148C518.267 289.507 518.012 288.893 517.559 288.439C517.106 287.986 516.492 287.731 515.851 287.73Z" fill="white"/>
<path d="M456.3 343.735C456.3 343.735 439.11 339.772 429.656 347.038C420.201 354.304 441.689 370.818 441.689 370.818L456.3 343.735Z" fill="#2F2E41"/>
<path d="M444.895 336.247C453.851 336.247 461.11 328.983 461.11 320.022C461.11 311.062 453.851 303.798 444.895 303.798C435.94 303.798 428.68 311.062 428.68 320.022C428.68 328.983 435.94 336.247 444.895 336.247Z" fill="#A0616A"/>
<path d="M432.357 297.248C433.438 295.411 435.005 293.91 436.886 292.909C438.766 291.908 440.887 291.446 443.013 291.575C445.237 291.854 447.407 292.462 449.453 293.378L460.053 297.516C462.796 298.586 465.8 299.898 466.99 302.592C468.095 305.093 467.271 307.981 466.437 310.585L462.471 322.961C462.031 320.16 461.277 317.417 460.223 314.785C459.152 312.136 457.216 309.927 454.73 308.519C451.977 307.105 448.732 307.135 445.641 307.283C441.263 307.494 436.503 308.052 433.393 311.141C431.742 312.895 430.623 315.083 430.165 317.449C429.715 319.802 429.488 322.193 429.488 324.589C427.693 321.502 426.181 318.258 424.97 314.898C423.974 312.396 423.407 309.743 423.291 307.053C423.187 304.339 424.087 301.682 425.819 299.591C426.698 298.569 427.845 297.813 429.13 297.408C430.415 297.003 431.788 296.966 433.094 297.3L432.357 297.248Z" fill="#2F2E41"/>
<path d="M483.613 357.803C483.46 357.256 483.15 356.765 482.72 356.393C482.29 356.021 481.76 355.784 481.196 355.712C481.158 355.686 481.119 355.663 481.079 355.642L456.872 342.069C456.181 341.681 455.367 341.575 454.6 341.773C453.832 341.97 453.171 342.456 452.752 343.13L446.132 353.855L436.161 343.878L436.002 343.719C435.49 343.207 434.815 342.892 434.094 342.829C433.373 342.765 432.652 342.959 432.06 343.374L412.165 357.313C412.131 357.313 412.095 357.325 412.061 357.325C411.108 357.483 410.239 357.962 409.596 358.682C408.952 359.402 408.574 360.321 408.522 361.285L408.009 371.671H487.454L483.613 357.803Z" fill="#F98F26"/>
<path d="M527.953 370.058H512.625C512.625 369.63 512.455 369.219 512.153 368.916C511.85 368.614 511.44 368.443 511.012 368.443H506.171C505.743 368.443 505.333 368.614 505.03 368.916C504.728 369.219 504.558 369.63 504.558 370.058H499.718C499.718 369.63 499.548 369.219 499.245 368.916C498.942 368.614 498.532 368.443 498.104 368.443H493.264C492.836 368.443 492.425 368.614 492.123 368.916C491.82 369.219 491.65 369.63 491.65 370.058H486.81C486.81 369.63 486.64 369.219 486.337 368.916C486.035 368.614 485.624 368.443 485.196 368.443H480.356C479.928 368.443 479.518 368.614 479.215 368.916C478.913 369.219 478.743 369.63 478.743 370.058H473.902C473.902 369.63 473.732 369.219 473.43 368.916C473.127 368.614 472.717 368.443 472.289 368.443H467.449C467.021 368.443 466.61 368.614 466.308 368.916C466.005 369.219 465.835 369.63 465.835 370.058H460.995C460.995 369.63 460.825 369.219 460.522 368.916C460.22 368.614 459.809 368.443 459.381 368.443H454.541C454.113 368.443 453.703 368.614 453.4 368.916C453.097 369.219 452.927 369.63 452.927 370.058H448.087C448.087 369.63 447.917 369.219 447.614 368.916C447.312 368.614 446.901 368.443 446.474 368.443H441.633C441.205 368.443 440.795 368.614 440.492 368.916C440.19 369.219 440.02 369.63 440.02 370.058H435.179C435.179 369.63 435.009 369.219 434.707 368.916C434.404 368.614 433.994 368.443 433.566 368.443H428.726C428.298 368.443 427.887 368.614 427.585 368.916C427.282 369.219 427.112 369.63 427.112 370.058H422.272C422.272 369.63 422.102 369.219 421.799 368.916C421.497 368.614 421.086 368.443 420.658 368.443H415.818C415.39 368.443 414.98 368.614 414.677 368.916C414.375 369.219 414.205 369.63 414.205 370.058H409.364C409.364 369.63 409.194 369.219 408.892 368.916C408.589 368.614 408.179 368.443 407.751 368.443H402.91C402.482 368.443 402.072 368.614 401.77 368.916C401.467 369.219 401.297 369.63 401.297 370.058H396.457C396.457 369.63 396.287 369.219 395.984 368.916C395.681 368.614 395.271 368.443 394.843 368.443H390.003C389.575 368.443 389.164 368.614 388.862 368.916C388.559 369.219 388.389 369.63 388.389 370.058H383.549C383.549 369.63 383.379 369.219 383.076 368.916C382.774 368.614 382.363 368.443 381.936 368.443H377.095C376.667 368.443 376.257 368.614 375.954 368.916C375.652 369.219 375.482 369.63 375.482 370.058H360.154C358.871 370.06 357.642 370.571 356.736 371.479C355.83 372.387 355.321 373.618 355.321 374.901C355.321 376.184 355.83 377.415 356.736 378.323C357.642 379.231 358.871 379.742 360.154 379.744H527.953C529.237 379.744 530.468 379.234 531.376 378.325C532.283 377.417 532.793 376.185 532.793 374.901C532.793 373.616 532.283 372.385 531.376 371.476C530.468 370.568 529.237 370.058 527.953 370.058Z" fill="#3F3D56"/>
<path d="M335.202 341.933V374.091H254.68C252.522 374.166 250.372 373.805 248.357 373.031C246.342 372.257 244.503 371.085 242.95 369.584C241.397 368.084 240.162 366.286 239.319 364.297C238.476 362.309 238.041 360.171 238.041 358.012C238.041 355.852 238.476 353.714 239.319 351.726C240.162 349.737 241.397 347.939 242.95 346.439C244.503 344.939 246.342 343.766 248.357 342.992C250.372 342.218 252.522 341.857 254.68 341.933H335.202Z" fill="#F2F2F2"/>
<path d="M337.18 373.843C337.18 374.171 337.05 374.486 336.818 374.718C336.586 374.95 336.272 375.08 335.944 375.08H253.246C248.754 375.08 244.446 373.295 241.271 370.117C238.095 366.939 236.31 362.629 236.31 358.135C236.31 353.641 238.095 349.331 241.271 346.153C244.446 342.976 248.754 341.19 253.246 341.19H335.944C336.272 341.19 336.586 341.321 336.818 341.553C337.05 341.785 337.18 342.099 337.18 342.427C337.18 342.755 337.05 343.07 336.818 343.302C336.586 343.534 336.272 343.664 335.944 343.664H253.246C249.412 343.668 245.737 345.194 243.027 347.907C240.318 350.621 238.796 354.3 238.796 358.135C238.796 361.971 240.318 365.65 243.027 368.363C245.737 371.077 249.412 372.603 253.246 372.606H335.944C336.272 372.606 336.586 372.737 336.818 372.969C337.05 373.201 337.18 373.515 337.18 373.843Z" fill="#F98F26"/>
<path d="M335.202 349.354H248.672C248.639 349.354 248.607 349.348 248.577 349.335C248.546 349.323 248.519 349.305 248.496 349.282C248.473 349.259 248.454 349.231 248.442 349.201C248.429 349.171 248.423 349.139 248.423 349.106C248.423 349.074 248.429 349.041 248.442 349.011C248.454 348.981 248.473 348.954 248.496 348.931C248.519 348.908 248.546 348.89 248.577 348.877C248.607 348.865 248.639 348.859 248.672 348.859H335.202C335.267 348.859 335.33 348.886 335.376 348.932C335.422 348.978 335.448 349.041 335.448 349.106C335.448 349.172 335.422 349.234 335.376 349.281C335.33 349.327 335.267 349.353 335.202 349.354Z" fill="#CCCCCC"/>
<path d="M335.202 355.291H248.672C248.639 355.291 248.607 355.284 248.577 355.272C248.546 355.26 248.519 355.242 248.496 355.219C248.473 355.196 248.454 355.168 248.442 355.138C248.429 355.108 248.423 355.076 248.423 355.043C248.423 355.011 248.429 354.978 248.442 354.948C248.454 354.918 248.473 354.891 248.496 354.868C248.519 354.845 248.546 354.826 248.577 354.814C248.607 354.802 248.639 354.796 248.672 354.796H335.202C335.267 354.796 335.33 354.822 335.376 354.869C335.422 354.915 335.448 354.978 335.448 355.043C335.448 355.108 335.422 355.171 335.376 355.217C335.33 355.264 335.267 355.29 335.202 355.291Z" fill="#CCCCCC"/>
<path d="M335.202 361.227H248.672C248.639 361.228 248.607 361.221 248.577 361.209C248.546 361.197 248.519 361.178 248.496 361.155C248.473 361.133 248.454 361.105 248.442 361.075C248.429 361.045 248.423 361.013 248.423 360.98C248.423 360.947 248.429 360.915 248.442 360.885C248.454 360.855 248.473 360.827 248.496 360.804C248.519 360.781 248.546 360.763 248.577 360.751C248.607 360.739 248.639 360.732 248.672 360.733H335.202C335.267 360.733 335.33 360.759 335.376 360.806C335.422 360.852 335.448 360.915 335.448 360.98C335.448 361.045 335.422 361.108 335.376 361.154C335.33 361.201 335.267 361.227 335.202 361.227Z" fill="#CCCCCC"/>
<path d="M335.202 367.164H248.672C248.639 367.164 248.607 367.158 248.577 367.146C248.546 367.133 248.519 367.115 248.496 367.092C248.473 367.069 248.454 367.042 248.442 367.012C248.429 366.982 248.423 366.949 248.423 366.917C248.423 366.884 248.429 366.852 248.442 366.822C248.454 366.792 248.473 366.764 248.496 366.741C248.519 366.718 248.546 366.7 248.577 366.688C248.607 366.675 248.639 366.669 248.672 366.669H335.202C335.267 366.67 335.33 366.696 335.376 366.742C335.422 366.789 335.448 366.851 335.448 366.917C335.448 366.982 335.422 367.045 335.376 367.091C335.33 367.137 335.267 367.164 335.202 367.164Z" fill="#CCCCCC"/>
<path d="M320.023 308.052V340.21H239.501C237.343 340.285 235.193 339.925 233.178 339.151C231.162 338.377 229.324 337.204 227.771 335.704C226.218 334.203 224.983 332.405 224.14 330.417C223.296 328.429 222.862 326.291 222.862 324.131C222.862 321.971 223.296 319.833 224.14 317.845C224.983 315.857 226.218 314.059 227.771 312.559C229.324 311.058 231.162 309.886 233.178 309.112C235.193 308.337 237.343 307.977 239.501 308.052H320.023Z" fill="#F2F2F2"/>
<path d="M322.001 339.963C322.001 340.291 321.87 340.605 321.639 340.837C321.407 341.069 321.092 341.2 320.765 341.2H238.066C235.842 341.2 233.64 340.761 231.586 339.91C229.531 339.058 227.664 337.81 226.091 336.237C224.519 334.663 223.271 332.795 222.42 330.739C221.569 328.684 221.131 326.48 221.131 324.255C221.131 322.03 221.569 319.826 222.42 317.77C223.271 315.715 224.519 313.847 226.091 312.273C227.664 310.7 229.531 309.452 231.586 308.6C233.64 307.748 235.842 307.31 238.066 307.31H320.765C321.092 307.31 321.407 307.44 321.639 307.672C321.871 307.904 322.001 308.219 322.001 308.547C322.001 308.875 321.871 309.19 321.639 309.422C321.407 309.653 321.092 309.784 320.765 309.784H238.066C234.233 309.787 230.557 311.313 227.848 314.027C225.138 316.74 223.616 320.419 223.616 324.255C223.616 328.091 225.138 331.769 227.848 334.483C230.557 337.196 234.233 338.723 238.066 338.726H320.765C321.092 338.726 321.407 338.856 321.639 339.088C321.87 339.32 322.001 339.635 322.001 339.963Z" fill="#3F3D56"/>
<path d="M320.023 315.473H233.493C233.46 315.473 233.428 315.467 233.397 315.455C233.367 315.443 233.34 315.424 233.317 315.401C233.294 315.378 233.275 315.351 233.263 315.321C233.25 315.291 233.244 315.259 233.244 315.226C233.244 315.193 233.25 315.161 233.263 315.131C233.275 315.101 233.294 315.073 233.317 315.05C233.34 315.027 233.367 315.009 233.397 314.997C233.428 314.985 233.46 314.978 233.493 314.978H320.023C320.088 314.979 320.151 315.005 320.197 315.052C320.243 315.098 320.269 315.161 320.269 315.226C320.269 315.291 320.243 315.354 320.197 315.4C320.151 315.447 320.088 315.473 320.023 315.473Z" fill="#CCCCCC"/>
<path d="M320.023 321.41H233.493C233.46 321.41 233.428 321.404 233.397 321.392C233.367 321.379 233.34 321.361 233.317 321.338C233.294 321.315 233.275 321.288 233.263 321.258C233.25 321.228 233.244 321.195 233.244 321.163C233.244 321.13 233.25 321.098 233.263 321.068C233.275 321.038 233.294 321.01 233.317 320.987C233.34 320.964 233.367 320.946 233.397 320.934C233.428 320.921 233.46 320.915 233.493 320.915H320.023C320.088 320.916 320.151 320.942 320.197 320.988C320.243 321.035 320.269 321.097 320.269 321.163C320.269 321.228 320.243 321.291 320.197 321.337C320.151 321.383 320.088 321.41 320.023 321.41Z" fill="#CCCCCC"/>
<path d="M320.023 327.347H233.493C233.46 327.347 233.428 327.341 233.397 327.329C233.367 327.316 233.34 327.298 233.317 327.275C233.294 327.252 233.275 327.225 233.263 327.195C233.25 327.165 233.244 327.132 233.244 327.1C233.244 327.067 233.25 327.035 233.263 327.005C233.275 326.974 233.294 326.947 233.317 326.924C233.34 326.901 233.367 326.883 233.397 326.871C233.428 326.858 233.46 326.852 233.493 326.852H320.023C320.088 326.853 320.151 326.879 320.197 326.925C320.243 326.972 320.269 327.034 320.269 327.1C320.269 327.165 320.243 327.228 320.197 327.274C320.151 327.32 320.088 327.347 320.023 327.347Z" fill="#CCCCCC"/>
<path d="M320.023 333.284H233.493C233.46 333.284 233.428 333.278 233.397 333.265C233.367 333.253 233.34 333.235 233.317 333.212C233.294 333.189 233.275 333.162 233.263 333.131C233.25 333.101 233.244 333.069 233.244 333.036C233.244 333.004 233.25 332.972 233.263 332.941C233.275 332.911 233.294 332.884 233.317 332.861C233.34 332.838 233.367 332.82 233.397 332.807C233.428 332.795 233.46 332.789 233.493 332.789H320.023C320.088 332.79 320.151 332.816 320.197 332.862C320.243 332.908 320.269 332.971 320.269 333.036C320.269 333.102 320.243 333.164 320.197 333.211C320.151 333.257 320.088 333.283 320.023 333.284Z" fill="#CCCCCC"/>
<path d="M413.695 488.395V460.356C413.695 459.116 413.203 457.928 412.327 457.051C411.451 456.175 410.263 455.683 409.024 455.683H302.77C301.531 455.683 300.343 456.175 299.468 457.051C298.592 457.928 298.1 459.116 298.1 460.356V488.395H413.695Z" fill="#CCCCCC"/>
<path d="M413.695 498.909H298.1V535.126H413.695V498.909Z" fill="#CCCCCC"/>
<path d="M298.1 545.641V573.68C298.1 574.919 298.592 576.108 299.468 576.984C300.343 577.861 301.531 578.353 302.77 578.353H409.024C410.263 578.353 411.451 577.861 412.327 576.984C413.203 576.108 413.695 574.919 413.695 573.68V545.641H298.1Z" fill="#CCCCCC"/>
<path d="M355.314 476.712C357.248 476.712 358.816 475.143 358.816 473.207C358.816 471.271 357.248 469.702 355.314 469.702C353.379 469.702 351.811 471.271 351.811 473.207C351.811 475.143 353.379 476.712 355.314 476.712Z" fill="white"/>
<path d="M355.314 523.443C357.248 523.443 358.816 521.874 358.816 519.939C358.816 518.003 357.248 516.434 355.314 516.434C353.379 516.434 351.811 518.003 351.811 519.939C351.811 521.874 353.379 523.443 355.314 523.443Z" fill="white"/>
<path d="M355.501 569.185C357.436 569.185 359.004 567.616 359.004 565.681C359.004 563.745 357.436 562.176 355.501 562.176C353.567 562.176 351.998 563.745 351.998 565.681C351.998 567.616 353.567 569.185 355.501 569.185Z" fill="white"/>
<path d="M400.589 423.713V455.871H320.067C317.91 455.946 315.759 455.586 313.744 454.811C311.729 454.037 309.89 452.865 308.337 451.364C306.785 449.864 305.55 448.066 304.706 446.078C303.863 444.089 303.428 441.952 303.428 439.792C303.428 437.632 303.863 435.494 304.706 433.506C305.55 431.518 306.785 429.72 308.337 428.219C309.89 426.719 311.729 425.546 313.744 424.772C315.759 423.998 317.91 423.638 320.067 423.713H400.589Z" fill="#F2F2F2"/>
<path d="M402.567 455.623C402.567 455.951 402.437 456.266 402.205 456.498C401.973 456.73 401.659 456.86 401.331 456.86H318.633C316.408 456.862 314.204 456.425 312.148 455.574C310.091 454.724 308.223 453.476 306.649 451.902C305.075 450.329 303.826 448.46 302.974 446.403C302.122 444.346 301.684 442.142 301.684 439.915C301.684 437.689 302.122 435.484 302.974 433.428C303.826 431.371 305.075 429.502 306.649 427.929C308.223 426.355 310.091 425.107 312.148 424.256C314.204 423.406 316.408 422.969 318.633 422.971H401.331C401.659 422.971 401.973 423.101 402.205 423.333C402.437 423.565 402.567 423.879 402.567 424.207C402.567 424.535 402.437 424.85 402.205 425.082C401.973 425.314 401.659 425.444 401.331 425.444H318.633C314.799 425.448 311.124 426.974 308.414 429.687C305.705 432.401 304.183 436.08 304.183 439.915C304.183 443.751 305.705 447.43 308.414 450.143C311.124 452.857 314.799 454.383 318.633 454.387H401.331C401.659 454.387 401.973 454.517 402.205 454.749C402.437 454.981 402.567 455.295 402.567 455.623Z" fill="#3F3D56"/>
<path d="M400.589 431.134H314.059C314.026 431.134 313.994 431.128 313.964 431.115C313.934 431.103 313.906 431.085 313.883 431.062C313.86 431.039 313.842 431.012 313.829 430.981C313.816 430.951 313.81 430.919 313.81 430.886C313.81 430.854 313.816 430.821 313.829 430.791C313.842 430.761 313.86 430.734 313.883 430.711C313.906 430.688 313.934 430.67 313.964 430.657C313.994 430.645 314.026 430.639 314.059 430.639H400.589C400.655 430.639 400.717 430.666 400.763 430.712C400.809 430.758 400.835 430.821 400.835 430.886C400.835 430.952 400.809 431.014 400.763 431.061C400.717 431.107 400.655 431.133 400.589 431.134Z" fill="#CCCCCC"/>
<path d="M400.589 437.071H314.059C314.026 437.071 313.994 437.065 313.964 437.052C313.934 437.04 313.906 437.022 313.883 436.999C313.86 436.976 313.842 436.948 313.829 436.918C313.816 436.888 313.81 436.856 313.81 436.823C313.81 436.791 313.816 436.758 313.829 436.728C313.842 436.698 313.86 436.671 313.883 436.648C313.906 436.625 313.934 436.607 313.964 436.594C313.994 436.582 314.026 436.576 314.059 436.576H400.589C400.655 436.576 400.717 436.603 400.763 436.649C400.809 436.695 400.835 436.758 400.835 436.823C400.835 436.889 400.809 436.951 400.763 436.998C400.717 437.044 400.655 437.07 400.589 437.071Z" fill="#CCCCCC"/>
<path d="M400.589 443.008H314.059C314.026 443.008 313.994 443.002 313.964 442.989C313.934 442.977 313.906 442.959 313.883 442.936C313.86 442.913 313.842 442.885 313.829 442.855C313.816 442.825 313.81 442.793 313.81 442.76C313.81 442.728 313.816 442.695 313.829 442.665C313.842 442.635 313.86 442.608 313.883 442.585C313.906 442.562 313.934 442.543 313.964 442.531C313.994 442.519 314.026 442.513 314.059 442.513H400.589C400.655 442.513 400.717 442.539 400.763 442.586C400.809 442.632 400.835 442.695 400.835 442.76C400.835 442.825 400.809 442.888 400.763 442.935C400.717 442.981 400.655 443.007 400.589 443.008Z" fill="#CCCCCC"/>
<path d="M400.589 448.944H314.059C314.026 448.945 313.994 448.938 313.964 448.926C313.934 448.914 313.906 448.895 313.883 448.872C313.86 448.849 313.842 448.822 313.829 448.792C313.816 448.762 313.81 448.73 313.81 448.697C313.81 448.664 313.816 448.632 313.829 448.602C313.842 448.572 313.86 448.544 313.883 448.521C313.906 448.498 313.934 448.48 313.964 448.468C313.994 448.456 314.026 448.449 314.059 448.45H400.589C400.655 448.45 400.717 448.476 400.763 448.523C400.809 448.569 400.835 448.632 400.835 448.697C400.835 448.762 400.809 448.825 400.763 448.871C400.717 448.918 400.655 448.944 400.589 448.944Z" fill="#CCCCCC"/>
<path d="M292.036 213.822V8.78721C292.039 6.45751 292.965 4.22399 294.612 2.57665C296.258 0.929303 298.49 0.00264995 300.819 0H462.802C465.131 0.00266538 467.363 0.929324 469.009 2.57667C470.656 4.22401 471.582 6.45752 471.585 8.78721V213.822C471.582 216.151 470.656 218.385 469.009 220.032C467.363 221.68 465.131 222.606 462.802 222.609H300.819C298.49 222.606 296.258 221.68 294.612 220.032C292.965 218.385 292.039 216.151 292.036 213.822ZM300.819 1.95271C299.008 1.95474 297.271 2.67546 295.991 3.95673C294.71 5.23801 293.99 6.97521 293.988 8.78721V213.822C293.99 215.634 294.71 217.371 295.991 218.652C297.271 219.934 299.008 220.654 300.819 220.656H462.802C464.613 220.654 466.349 219.934 467.63 218.652C468.911 217.371 469.631 215.634 469.633 213.822V8.78721C469.631 6.97521 468.911 5.23801 467.63 3.95673C466.349 2.67546 464.613 1.95475 462.802 1.95271H300.819Z" fill="#E6E6E6"/>
<path d="M390.894 94.1613V52.0613C390.895 50.8964 391.358 49.7796 392.181 48.956C393.005 48.1323 394.121 47.669 395.285 47.6677H430.941C432.105 47.669 433.221 48.1323 434.044 48.956C434.868 49.7796 435.331 50.8964 435.332 52.0613V94.1613C435.331 95.3262 434.868 96.443 434.044 97.2666C433.221 98.0903 432.105 98.5536 430.941 98.5549H395.285C394.121 98.5536 393.005 98.0903 392.181 97.2666C391.358 96.443 390.895 95.3262 390.894 94.1613Z" fill="#F98F26"/>
<path d="M321.612 113.688V71.5884C321.613 70.4236 322.076 69.3068 322.899 68.4831C323.723 67.6594 324.839 67.1961 326.003 67.1949H361.659C362.823 67.1961 363.939 67.6594 364.762 68.4831C365.586 69.3068 366.049 70.4236 366.05 71.5884V113.688C366.049 114.853 365.586 115.97 364.762 116.794C363.939 117.618 362.823 118.081 361.659 118.082H326.003C324.839 118.081 323.723 117.617 322.899 116.794C322.076 115.97 321.613 114.853 321.612 113.688Z" fill="#CCCCCC"/>
<path d="M377.233 173.246V131.146C377.234 129.981 377.697 128.864 378.52 128.041C379.343 127.217 380.46 126.754 381.624 126.752H417.28C418.444 126.754 419.56 127.217 420.383 128.041C421.206 128.864 421.67 129.981 421.671 131.146V173.246C421.67 174.411 421.206 175.528 420.383 176.351C419.56 177.175 418.444 177.638 417.28 177.64H381.624C380.46 177.638 379.343 177.175 378.52 176.351C377.697 175.528 377.234 174.411 377.233 173.246Z" fill="#FF6584"/>
<path d="M590.31 365.725H553.624C553.275 365.724 552.932 365.804 552.62 365.958L543.36 370.596C543.055 370.726 542.796 370.942 542.613 371.219C542.43 371.495 542.333 371.819 542.333 372.15C542.333 372.481 542.43 372.805 542.613 373.082C542.796 373.358 543.055 373.574 543.36 373.704L552.62 378.342C552.932 378.496 553.275 378.576 553.624 378.576H590.31C590.816 378.605 591.313 378.434 591.693 378.099C592.073 377.765 592.307 377.294 592.342 376.788V367.512C592.307 367.007 592.073 366.536 591.693 366.201C591.313 365.866 590.816 365.695 590.31 365.725Z" fill="#3F3D56"/>
<path d="M592.342 367.512V376.788C592.307 377.294 592.073 377.765 591.693 378.099C591.313 378.434 590.816 378.605 590.31 378.576H583.001V365.724H590.31C590.816 365.695 591.313 365.866 591.693 366.201C592.073 366.536 592.307 367.007 592.342 367.512Z" fill="#F98F26"/>
<path d="M590.034 296.328C591.696 295.61 593.491 295.252 595.3 295.277C597.11 295.302 598.894 295.709 600.536 296.472C602.177 297.234 603.639 298.335 604.826 299.703C606.012 301.07 606.897 302.673 607.421 304.406C607.584 304.956 607.709 305.516 607.795 306.083L659.098 331.538L670.971 323.665L685.744 340.681L667.615 355.413C665.435 357.171 662.747 358.179 659.949 358.287C657.151 358.395 654.393 357.597 652.084 356.013L600.032 319.996C599.645 320.161 599.249 320.305 598.847 320.429C597.115 320.953 595.291 321.105 593.496 320.875C591.7 320.645 589.974 320.038 588.429 319.094C586.885 318.149 585.557 316.889 584.533 315.396C583.509 313.902 582.812 312.209 582.488 310.427C582.392 309.91 582.329 309.388 582.298 308.862C582.154 306.233 582.818 303.622 584.201 301.381C585.584 299.14 587.62 297.377 590.034 296.328Z" fill="#FFB8B8"/>
<path d="M696.89 453.052H640.832C640.832 454.665 583.058 455.973 583.058 455.973C582.151 456.656 581.324 457.44 580.594 458.31C578.4 460.928 577.2 464.239 577.207 467.656V469.993C577.209 473.865 578.747 477.579 581.484 480.317C584.221 483.056 587.932 484.595 591.803 484.596H696.89C700.759 484.593 704.47 483.053 707.206 480.315C709.943 477.577 711.482 473.865 711.485 469.993V467.656C711.48 463.784 709.94 460.073 707.204 457.336C704.468 454.598 700.759 453.058 696.89 453.052Z" fill="#3F3D56"/>
<path d="M635.912 582.152H651.091V484.016H635.912V582.152Z" fill="#3F3D56"/>
<path d="M592.709 581.619C592.709 583.26 615.711 582.253 644.085 582.253C672.459 582.253 695.461 583.26 695.461 581.619C695.461 579.978 672.459 566.964 644.085 566.964C615.711 566.964 592.709 579.978 592.709 581.619Z" fill="#3F3D56"/>
<path d="M606.412 570.116L592.098 570.115L585.287 532.967L606.415 532.968L606.412 570.116Z" fill="#FFB8B8"/>
<path d="M610.063 584L563.906 583.998V583.414C563.906 581.054 564.371 578.716 565.274 576.535C566.176 574.354 567.5 572.373 569.168 570.703C570.836 569.034 572.817 567.71 574.997 566.807C577.176 565.903 579.512 565.439 581.872 565.439H581.873L610.064 565.44L610.063 584Z" fill="#2F2E41"/>
<path d="M585.002 547.08L556.464 483.049C554.081 477.652 553.818 471.555 555.726 465.973C557.634 460.391 561.574 455.732 566.761 452.926L628.661 419.714L656.907 417.31L682.963 414.94L683.151 415.259C683.391 415.665 688.993 425.346 685.206 435.963C682.334 444.015 674.862 450.305 662.999 454.658C635.31 464.816 603.323 473.499 590.856 476.759C590.305 476.9 589.79 477.156 589.345 477.511C588.9 477.865 588.535 478.31 588.274 478.815C588.012 479.315 587.857 479.863 587.817 480.426C587.778 480.989 587.855 481.554 588.045 482.085L614.557 541.685C614.834 542.441 614.934 543.25 614.849 544.051C614.764 544.851 614.496 545.621 614.066 546.302C613.636 546.983 613.056 547.555 612.37 547.976C611.684 548.397 610.911 548.654 610.11 548.729L590.299 550.172C590.131 550.188 589.963 550.196 589.797 550.196C588.782 550.196 587.789 549.901 586.938 549.348C586.088 548.795 585.415 548.007 585.002 547.08Z" fill="#2F2E41"/>
<path d="M613.418 570.116L599.104 570.115L592.293 532.967L613.42 532.968L613.418 570.116Z" fill="#FFB8B8"/>
<path d="M617.069 584L570.912 583.998V583.414C570.912 581.054 571.377 578.716 572.279 576.535C573.182 574.354 574.506 572.373 576.174 570.703C577.842 569.034 579.823 567.71 582.002 566.807C584.182 565.903 586.518 565.439 588.878 565.439H588.879L617.07 565.44L617.069 584Z" fill="#2F2E41"/>
<path d="M593.176 550.585L564.638 486.554C562.255 481.157 561.991 475.06 563.9 469.478C565.808 463.895 569.748 459.237 574.934 456.43L636.834 423.219L665.081 420.815L691.136 418.445L691.324 418.763C691.564 419.17 697.166 428.851 693.38 439.468C690.507 447.52 683.036 453.81 671.173 458.162C643.483 468.321 611.496 477.003 599.029 480.264C598.478 480.405 597.963 480.661 597.518 481.015C597.073 481.37 596.708 481.814 596.447 482.32C596.186 482.82 596.03 483.368 595.991 483.931C595.951 484.494 596.029 485.059 596.218 485.59L622.731 545.19C623.008 545.946 623.107 546.755 623.022 547.555C622.937 548.356 622.669 549.126 622.24 549.807C621.81 550.488 621.23 551.06 620.544 551.481C619.858 551.902 619.084 552.159 618.283 552.234L598.472 553.677C598.304 553.693 598.137 553.701 597.97 553.701C596.955 553.7 595.963 553.406 595.112 552.853C594.261 552.3 593.588 551.512 593.176 550.585Z" fill="#2F2E41"/>
<path d="M578.951 354.978C566.959 339.017 557.479 321.315 550.84 302.484C550.456 301.358 550.483 300.132 550.917 299.024C551.352 297.916 552.165 296.998 553.213 296.433L594.249 274.433C594.913 274.074 595.65 273.872 596.404 273.841C597.158 273.81 597.908 273.952 598.599 274.256C599.303 274.562 599.927 275.024 600.425 275.608C600.923 276.192 601.282 276.882 601.473 277.625C606.25 295.771 615.228 312.536 627.681 326.566C628.194 327.137 628.57 327.817 628.78 328.556C628.99 329.294 629.029 330.07 628.894 330.826C628.764 331.57 628.466 332.274 628.023 332.885C627.58 333.496 627.003 333.998 626.337 334.352L585.301 356.353C584.251 356.913 583.037 357.082 581.874 356.83C580.711 356.578 579.676 355.922 578.951 354.978Z" fill="#CCCCCC"/>
<path d="M581.752 352.872C581.972 353.148 582.282 353.338 582.628 353.409C582.974 353.481 583.334 353.429 583.646 353.264L624.683 331.262C624.882 331.158 625.054 331.01 625.187 330.828C625.319 330.646 625.407 330.436 625.445 330.214C625.487 329.98 625.475 329.74 625.41 329.511C625.344 329.282 625.226 329.072 625.065 328.897C612.244 314.454 603.002 297.194 598.085 278.514C598.028 278.283 597.918 278.069 597.765 277.888C597.611 277.706 597.418 277.563 597.2 277.469C596.994 277.377 596.77 277.334 596.545 277.343C596.32 277.352 596.1 277.414 595.903 277.522L554.867 299.523C554.556 299.691 554.314 299.962 554.182 300.29C554.05 300.618 554.036 300.982 554.144 301.319C560.664 319.812 569.974 337.198 581.752 352.872Z" fill="white"/>
<path d="M715.281 349.109L683.143 361.328L675.296 339.52C674.254 336.625 674.269 333.454 675.338 330.568C676.407 327.682 678.461 325.266 681.137 323.749C683.844 322.214 687.011 321.698 690.065 322.295C693.119 322.892 695.859 324.561 697.79 327.002L715.281 349.109Z" fill="#F98F26"/>
<path d="M633.536 435.516C632.86 435.037 632.293 434.419 631.873 433.705C631.454 432.99 631.191 432.194 631.103 431.369C626.987 392.921 629.854 362.833 639.867 339.384C641.631 335.34 644.288 331.748 647.638 328.879C650.989 326.01 654.945 323.938 659.211 322.818L685.19 321.506L685.325 321.571C691.187 324.444 695.968 329.131 698.959 334.937C701.95 340.743 702.991 347.358 701.928 353.803C693.572 375.84 686.575 398.785 691.911 417.295C692.135 418.069 692.2 418.88 692.103 419.679C692.006 420.479 691.749 421.251 691.346 421.948C690.956 422.623 690.432 423.21 689.806 423.674C689.181 424.138 688.467 424.469 687.708 424.646L638.226 436.424C637.424 436.614 636.592 436.632 635.783 436.475C634.974 436.319 634.208 435.992 633.536 435.516Z" fill="#F98F26"/>
<path d="M676.52 311.798C692.359 311.798 705.199 298.951 705.199 283.103C705.199 267.256 692.359 254.409 676.52 254.409C660.682 254.409 647.842 267.256 647.842 283.103C647.842 298.951 660.682 311.798 676.52 311.798Z" fill="#FFB8B8"/>
<path d="M596.943 305.83L574.593 315.702C573.743 316.076 572.779 316.098 571.913 315.762C571.047 315.426 570.35 314.76 569.974 313.911L569.421 312.658C569.047 311.807 569.025 310.843 569.361 309.976C569.696 309.11 570.362 308.412 571.211 308.036L593.561 298.164C594.411 297.79 595.375 297.768 596.241 298.104C597.107 298.44 597.804 299.106 598.18 299.955L598.733 301.208C599.107 302.059 599.129 303.023 598.793 303.89C598.458 304.756 597.792 305.454 596.943 305.83Z" fill="#CCCCCC"/>
<path d="M605.117 321.018L582.766 330.889C581.916 331.264 580.953 331.285 580.087 330.95C579.221 330.614 578.523 329.948 578.147 329.098L577.594 327.845C577.22 326.995 577.199 326.031 577.534 325.164C577.87 324.298 578.535 323.6 579.384 323.224L601.735 313.352C602.585 312.978 603.548 312.956 604.414 313.292C605.28 313.628 605.978 314.293 606.354 315.143L606.907 316.396C607.281 317.247 607.302 318.211 606.967 319.077C606.631 319.944 605.966 320.642 605.117 321.018Z" fill="#CCCCCC"/>
<path d="M622.353 380.34L572.525 341.009C572.128 341.148 571.724 341.267 571.315 341.366C569.556 341.777 567.731 341.814 565.957 341.474C564.183 341.133 562.501 340.423 561.019 339.39C559.528 338.355 558.274 337.014 557.343 335.456C556.411 333.898 555.823 332.159 555.617 330.355C555.283 327.471 555.933 324.559 557.461 322.09C558.988 319.622 561.305 317.743 564.035 316.758C565.738 316.147 567.552 315.902 569.356 316.041C571.161 316.179 572.916 316.698 574.506 317.562C576.096 318.427 577.486 319.618 578.584 321.057C579.683 322.496 580.465 324.152 580.879 325.914C581.007 326.473 581.097 327.04 581.147 327.611L630.749 356.242L643.093 349.132L656.767 367.044L637.601 380.712C635.358 382.299 632.662 383.12 629.916 383.053C627.169 382.986 624.517 382.035 622.353 380.34Z" fill="#FFB8B8"/>
<path d="M662.847 372.622L634.417 353.278L647.778 334.344C649.552 331.83 652.157 330.024 655.134 329.246C658.11 328.468 661.265 328.767 664.041 330.092C666.85 331.431 669.088 333.732 670.35 336.577C671.612 339.423 671.816 342.627 670.924 345.609L662.847 372.622Z" fill="#F98F26"/>
<path d="M666.006 278.83C658.635 283.877 648.957 289.066 641.429 283.69C636.485 280.161 634.928 273.625 636.933 267.889C640.537 257.575 650.441 253.034 659.912 249.554C672.224 245.029 685.63 241.429 698.34 244.67C711.05 247.91 722.283 260.223 719.989 273.144C718.144 283.535 708.347 292.181 709.738 302.643C711.138 313.172 722.972 318.714 733.419 320.596C743.867 322.477 755.558 323.082 763.066 330.591C772.645 340.169 770.253 357.29 761.24 367.403C752.227 377.516 738.627 382.1 725.448 385.216C707.986 389.345 689.1 391.515 672.517 384.663C655.933 377.81 643.027 359.364 647.831 342.067C649.861 334.761 654.641 328.586 659.261 322.575C663.881 316.564 668.559 310.278 670.321 302.902C671.79 296.756 670.703 289.62 666.629 285.01C665.888 284.203 665.422 283.182 665.297 282.093C665.173 281.005 665.396 279.905 665.935 278.951L666.006 278.83Z" fill="#2F2E41"/>
<path d="M127.356 418.245C119.966 420.844 112.032 421.495 104.318 420.136C96.6033 418.776 89.369 415.452 83.3116 410.482C67.8849 397.527 63.0482 376.183 59.1127 356.42C55.2325 336.934 51.3524 317.449 47.4723 297.964L71.8426 314.754C89.3684 326.828 107.289 339.289 119.424 356.778C131.558 374.268 136.855 398.142 127.105 417.066" fill="#E6E6E6"/>
<path d="M125.273 489.018C127.739 471.041 130.276 452.834 128.545 434.664C127.009 418.527 122.089 402.766 112.072 389.843C106.755 382.997 100.285 377.131 92.953 372.509C91.0411 371.302 89.2815 374.333 91.185 375.535C103.871 383.558 113.683 395.403 119.207 409.365C125.308 424.891 126.287 441.815 125.236 458.308C124.6 468.282 123.253 478.191 121.895 488.087C121.788 488.534 121.855 489.006 122.082 489.406C122.309 489.806 122.679 490.105 123.118 490.242C123.566 490.363 124.043 490.302 124.447 490.073C124.85 489.844 125.147 489.465 125.273 489.018H125.273Z" fill="#F2F2F2"/>
<path d="M101.515 457.208C98.3456 462.027 93.9891 465.949 88.8652 468.595C83.7413 471.241 78.0227 472.522 72.2603 472.315C57.4511 471.612 45.1049 461.27 33.991 451.452L1.11841 422.412L22.8746 421.37C38.5204 420.621 54.5699 419.922 69.4719 424.749C84.374 429.577 98.1175 441.195 100.842 456.629" fill="#E6E6E6"/>
<path d="M132.244 499.353C120.371 478.334 106.601 454.974 81.9949 447.507C75.1532 445.438 67.9793 444.697 60.8595 445.324C58.6156 445.517 59.1759 448.978 61.4158 448.785C73.3502 447.794 85.2615 450.947 95.1445 457.714C104.655 464.191 112.059 473.195 118.327 482.744C122.166 488.594 125.604 494.691 129.044 500.78C130.143 502.726 133.355 501.321 132.244 499.353Z" fill="#F2F2F2"/>
<path d="M151.266 521.476C150.866 516.839 149.202 512.4 146.455 508.643C143.708 504.886 139.983 501.956 135.687 500.171V488.019H115.318V500.554C111.233 502.426 107.717 505.35 105.129 509.025C102.541 512.701 100.974 516.997 100.587 521.476L95.797 577.185H156.056L151.266 521.476Z" fill="#F2F2F2"/>
</g>
<defs>
<clipPath id="clip0_144_341">
<rect width="808" height="584" fill="white"/>
</clipPath>
</defs>
</svg>
