<svg width="32" height="31" viewBox="0 0 32 31" fill="none" xmlns="http://www.w3.org/2000/svg">
<path d="M15.9354 11.3226C14.9344 11.3226 13.9744 11.7202 13.2666 12.428C12.5588 13.1358 12.1612 14.0958 12.1612 15.0968C12.1612 16.0977 12.5588 17.0577 13.2666 17.7655C13.9744 18.4733 14.9344 18.871 15.9354 18.871C16.9364 18.871 17.8963 18.4733 18.6041 17.7655C19.3119 17.0577 19.7096 16.0977 19.7096 15.0968C19.7096 14.0958 19.3119 13.1358 18.6041 12.428C17.8963 11.7202 16.9364 11.3226 15.9354 11.3226ZM15.9354 8.80644C17.6037 8.80644 19.2036 9.46916 20.3833 10.6488C21.563 11.8285 22.2257 13.4285 22.2257 15.0968C22.2257 16.7651 21.563 18.365 20.3833 19.5447C19.2036 20.7244 17.6037 21.3871 15.9354 21.3871C14.2671 21.3871 12.6671 20.7244 11.4875 19.5447C10.3078 18.365 9.64506 16.7651 9.64506 15.0968C9.64506 13.4285 10.3078 11.8285 11.4875 10.6488C12.6671 9.46916 14.2671 8.80644 15.9354 8.80644ZM24.1128 8.49192C24.1128 8.90899 23.9471 9.30899 23.6522 9.6039C23.3573 9.89882 22.9573 10.0645 22.5402 10.0645C22.1231 10.0645 21.7232 9.89882 21.4282 9.6039C21.1333 9.30899 20.9676 8.90899 20.9676 8.49192C20.9676 8.07485 21.1333 7.67485 21.4282 7.37994C21.7232 7.08502 22.1231 6.91934 22.5402 6.91934C22.9573 6.91934 23.3573 7.08502 23.6522 7.37994C23.9471 7.67485 24.1128 8.07485 24.1128 8.49192ZM15.9354 5.03224C12.8229 5.03224 12.3147 5.04105 10.8666 5.10521C9.88032 5.15176 9.21858 5.28385 8.60464 5.52289C8.05864 5.73424 7.66487 5.98711 7.24593 6.40731C6.85216 6.78774 6.54941 7.2522 6.36025 7.76602C6.12122 8.38247 5.98912 9.04295 5.94383 10.028C5.87841 11.4169 5.87087 11.9025 5.87087 15.0968C5.87087 18.2092 5.87967 18.7175 5.94383 20.1655C5.99038 21.1506 6.12248 21.8136 6.36025 22.4262C6.57412 22.9735 6.82574 23.3673 7.24341 23.785C7.66738 24.2077 8.06116 24.4605 8.60212 24.6694C9.22361 24.9097 9.88535 25.043 10.8666 25.0883C12.2555 25.1537 12.7412 25.1613 15.9354 25.1613C19.0478 25.1613 19.5561 25.1525 21.0041 25.0883C21.9879 25.0418 22.6509 24.9097 23.2649 24.6719C23.8096 24.4593 24.2059 24.2064 24.6236 23.7887C25.0475 23.3648 25.3004 22.971 25.5093 22.43C25.7483 21.8098 25.8816 21.1468 25.9269 20.1655C25.9923 18.7766 25.9999 18.291 25.9999 15.0968C25.9999 11.9843 25.9911 11.476 25.9269 10.028C25.8804 9.04421 25.7483 8.37995 25.5093 7.76602C25.3197 7.25273 25.0174 6.78845 24.6248 6.40731C24.2446 6.01334 23.7801 5.71055 23.2661 5.52163C22.6497 5.2826 21.9879 5.1505 21.0041 5.10521C19.6152 5.03979 19.1296 5.03224 15.9354 5.03224ZM15.9354 2.51611C19.3535 2.51611 19.78 2.52869 21.1211 2.5916C22.461 2.6545 23.3731 2.8646 24.1757 3.1766C25.006 3.49615 25.7055 3.92892 26.405 4.62715C27.0447 5.25605 27.5397 6.01679 27.8555 6.85644C28.1663 7.65782 28.3776 8.57118 28.4405 9.91102C28.4997 11.2521 28.516 11.6786 28.516 15.0968C28.516 18.5149 28.5034 18.9414 28.4405 20.2825C28.3776 21.6223 28.1663 22.5344 27.8555 23.3371C27.5406 24.1772 27.0455 24.9381 26.405 25.5664C25.7759 26.2059 25.0152 26.7008 24.1757 27.0169C23.3743 27.3277 22.461 27.539 21.1211 27.6019C19.78 27.661 19.3535 27.6774 15.9354 27.6774C12.5172 27.6774 12.0907 27.6648 10.7496 27.6019C9.4098 27.539 8.4977 27.3277 7.69506 27.0169C6.85508 26.7017 6.09421 26.2067 5.46577 25.5664C4.82592 24.9376 4.33091 24.1768 4.01522 23.3371C3.70322 22.5357 3.49312 21.6223 3.43022 20.2825C3.37109 18.9414 3.35474 18.5149 3.35474 15.0968C3.35474 11.6786 3.36732 11.2521 3.43022 9.91102C3.49312 8.56992 3.70322 7.65908 4.01522 6.85644C4.33003 6.01627 4.82517 5.25532 5.46577 4.62715C6.09439 3.98708 6.85521 3.49203 7.69506 3.1766C8.4977 2.8646 9.40854 2.6545 10.7496 2.5916C12.0907 2.53247 12.5172 2.51611 15.9354 2.51611Z" fill="#B75742"/>
</svg>
