<svg width="31" height="31" viewBox="0 0 31 31" fill="none" xmlns="http://www.w3.org/2000/svg">
<path d="M9.93114 23.2666L10.842 23.7988C12.378 24.6946 14.125 25.1649 15.9032 25.1613C17.8937 25.1613 19.8396 24.571 21.4947 23.4651C23.1498 22.3592 24.4398 20.7873 25.2016 18.9483C25.9633 17.1092 26.1626 15.0856 25.7743 13.1333C25.386 11.1809 24.4274 9.38762 23.0199 7.98007C21.6123 6.57252 19.819 5.61397 17.8667 5.22563C15.9143 4.83729 13.8907 5.0366 12.0516 5.79836C10.2126 6.56012 8.64074 7.85011 7.53483 9.50521C6.42893 11.1603 5.83866 13.1062 5.83866 15.0968C5.83866 16.9033 6.31295 18.6357 7.2024 20.1592L7.7333 21.07L6.91178 24.0907L9.93114 23.2666ZM3.32756 27.6774L5.02846 21.4273C3.9077 19.5061 3.31887 17.321 3.32253 15.0968C3.32253 8.14847 8.95488 2.51611 15.9032 2.51611C22.8515 2.51611 28.4838 8.14847 28.4838 15.0968C28.4838 22.045 22.8515 27.6774 15.9032 27.6774C13.6799 27.681 11.4957 27.0926 9.57511 25.9727L3.32756 27.6774ZM11.3628 9.19392C11.5314 9.18134 11.7012 9.18134 11.8698 9.18889C11.9378 9.19392 12.0057 9.20147 12.0736 9.20902C12.2737 9.23166 12.4938 9.35369 12.568 9.52227C12.9429 10.3727 13.3078 11.2295 13.66 12.0887C13.738 12.28 13.6915 12.5253 13.543 12.7643C13.4409 12.9259 13.3305 13.0822 13.2122 13.2323C13.07 13.4147 12.7643 13.7494 12.7643 13.7494C12.7643 13.7494 12.6398 13.8978 12.6876 14.0828C12.7052 14.1532 12.763 14.2551 12.8159 14.3407L12.8901 14.4602C13.2122 14.9974 13.6449 15.5421 14.1733 16.0554C14.3243 16.2013 14.4715 16.351 14.63 16.4907C15.2188 17.0103 15.8856 17.4342 16.6052 17.7488L16.6115 17.7513C16.7184 17.7978 16.7725 17.823 16.9285 17.8897C17.0065 17.9224 17.087 17.9513 17.1688 17.9727C17.2533 17.9942 17.3423 17.9902 17.4245 17.961C17.5067 17.9319 17.5784 17.8791 17.6305 17.8091C18.5413 16.7058 18.6244 16.6341 18.6319 16.6341V16.6366C18.6952 16.5776 18.7704 16.5328 18.8524 16.5053C18.9344 16.4777 19.0214 16.468 19.1075 16.4769C19.1829 16.4819 19.2597 16.4957 19.3301 16.5272C19.9982 16.8329 21.0914 17.3097 21.0914 17.3097L21.8236 17.638C21.9469 17.6972 22.0589 17.8368 22.0627 17.9714C22.0677 18.0557 22.0752 18.1916 22.0463 18.4407C22.006 18.7665 21.9079 19.1578 21.8098 19.3629C21.7426 19.5028 21.6534 19.6311 21.5456 19.7428C21.4186 19.8761 21.2797 19.9974 21.1304 20.1051C21.0788 20.1439 21.0264 20.1817 20.9732 20.2183C20.8167 20.3176 20.6559 20.41 20.4913 20.4951C20.1674 20.6672 19.8097 20.7659 19.4434 20.7845C19.2106 20.797 18.9779 20.8147 18.7439 20.8021C18.7338 20.8021 18.0293 20.6926 18.0293 20.6926C16.2407 20.2222 14.5865 19.3408 13.1983 18.1186C12.914 17.8683 12.6511 17.599 12.3818 17.3311C11.2622 16.2177 10.4168 15.0162 9.90346 13.8815C9.64074 13.3245 9.49883 12.7183 9.48704 12.1026C9.48186 11.3387 9.73154 10.595 10.1966 9.98902C10.2884 9.87076 10.3752 9.74747 10.5249 9.60531C10.6847 9.45434 10.7854 9.37382 10.8948 9.31847C11.0403 9.24554 11.1991 9.20275 11.3616 9.19266L11.3628 9.19392Z" fill="#B75742"/>
</svg>
